<?xml version="1.0" encoding="UTF-8"?>
<svg width="18px" height="16px" viewBox="0 0 18 16" version="1.1" xmlns="http://www.w3.org/2000/svg" xmlns:xlink="http://www.w3.org/1999/xlink">
    <!-- Generator: Sketch 41 (35326) - http://www.bohemiancoding.com/sketch -->
    <title>comments</title>
    <desc>Created with Sketch.</desc>
    <defs></defs>
    <g id="Page-1" stroke="none" stroke-width="1" fill="none" fill-rule="evenodd">
        <g id="comments" fill="#000000">
            <path d="M17.989,11.319 L17.989,1.286 C17.989,0.699 17.511,0.222 16.925,0.222 L1.075,0.222 C0.488,0.222 0.011,0.699 0.011,1.286 L0.011,11.319 C0.011,11.906 0.488,12.384 1.075,12.384 L6.67,12.384 L8.636,15.586 C8.709,15.706 8.84,15.779 8.98,15.779 C9.12,15.779 9.251,15.706 9.324,15.587 L11.29,12.384 L16.925,12.384 C17.512,12.383 17.989,11.906 17.989,11.319 Z M17.182,11.319 C17.182,11.461 17.067,11.576 16.925,11.576 L11.064,11.576 C10.924,11.576 10.793,11.649 10.72,11.768 L8.98,14.603 L7.24,11.769 C7.167,11.649 7.036,11.576 6.896,11.576 L1.075,11.576 C0.933,11.576 0.818,11.461 0.818,11.319 L0.818,1.286 C0.818,1.144 0.933,1.029 1.075,1.029 L16.925,1.029 C17.067,1.029 17.182,1.144 17.182,1.286 L17.182,11.319 L17.182,11.319 Z" id="Shape"></path>
        </g>
    </g>
</svg>