<?xml version="1.0" encoding="UTF-8"?>
<svg width="100px" height="100px" viewBox="0 0 100 100" version="1.1" xmlns="http://www.w3.org/2000/svg" xmlns:xlink="http://www.w3.org/1999/xlink">
    <!-- Generator: Sketch 41 (35326) - http://www.bohemiancoding.com/sketch -->
    <title>edit</title>
    <desc>Created with Sketch.</desc>
    <defs></defs>
    <g id="Page-1" stroke="none" stroke-width="1" fill="none" fill-rule="evenodd">
        <g id="edit" fill="#000000">
            <path d="M50,99.95 C70.2037987,99.9540448 88.42045,87.7866828 96.1549119,69.1219676 C103.889374,50.4572523 99.6183325,28.9712268 85.3335194,14.6835533 C71.0487064,0.395879901 49.5635365,-3.87946324 30.897273,3.85126141 C12.2310095,11.5819861 0.0600004049,29.7962009 0.06,50 C0.0599994472,77.5827185 22.4172821,99.9444779 50,99.95 L50,99.95 Z M50,3.18 C75.857972,3.18 96.82,24.142028 96.82,50 C96.82,75.857972 75.857972,96.82 50,96.82 C24.142028,96.82 3.18,75.857972 3.18,50 C3.20755792,24.1534515 24.1534515,3.20755792 50,3.18 L50,3.18 Z" id="Shape"></path>
            <path d="M19.48,57.49 L26.01,58.49 C26.2934843,59.3424184 26.627407,60.1772251 27.01,60.99 C26.5833333,61.5633333 26.05,62.2533333 25.41,63.06 C24.41,64.33 23.69,65.26 23.28,65.84 C22.8739802,66.3753436 22.652882,67.0281097 22.65,67.7 C22.6432845,68.3655132 22.8462052,69.0162588 23.23,69.56 C25.3339239,72.1141833 27.666968,74.4706582 30.2,76.6 C31.3281272,77.6680749 33.0640569,77.7612224 34.3,76.82 L39.3,73.02 C39.97,73.33 40.67,73.62 41.4,73.88 L42.4,80.37 C42.4499283,81.1555747 42.8317253,81.8828072 43.45,82.37 C44.016369,82.8251699 44.7234531,83.0691139 45.45,83.06 L54.55,83.06 C55.9831168,83.1253922 57.2528185,82.1434896 57.55,80.74 C58.0527699,78.4801713 58.4233984,76.1929596 58.66,73.89 C59.37,73.63 60.08,73.33 60.77,73.01 L65.77,76.92 C66.3350748,77.3021267 66.9980397,77.513859 67.68,77.53 C68.68,77.53 69.79,76.97 72.68,74.17 C74.1606187,72.7754408 75.5376015,71.2747969 76.8,69.68 C77.2991617,69.133959 77.5741124,68.4198015 77.57,67.68 C77.557765,66.945082 77.2889142,66.2375798 76.81,65.68 C75.21,63.68 73.95,62.11 73.04,60.87 C73.3533333,60.2033333 73.66,59.4766667 73.96,58.69 L80.65,57.69 C81.3864983,57.566666 82.0424106,57.1522159 82.47,56.54 C82.8482562,55.9772572 83.0341907,55.3071915 83,54.63 L83,45.53 C82.9994445,44.8344444 82.7672223,44.1588889 82.34,43.61 C81.8884346,43.0133883 81.2203582,42.6182894 80.48,42.51 L73.92,41.51 C73.628463,40.6736239 73.2947011,39.8525696 72.92,39.05 C73.35,38.48 73.92,37.79 74.53,36.97 C75.53,35.7 76.25,34.77 76.66,34.19 C77.0660198,33.6546564 77.287118,33.0018903 77.29,32.33 C77.3166597,31.6817624 77.1149338,31.044733 76.72,30.53 C74.6066657,27.9071269 72.2640913,25.4775427 69.72,23.27 C69.1652247,22.7838468 68.4574303,22.507807 67.72,22.49 C67.0142245,22.4589581 66.3245652,22.7068044 65.8,23.18 L60.69,27 C60.02,26.69 59.31,26.4 58.58,26.13 L57.58,19.64 C57.5449846,18.8617884 57.1815601,18.1349393 56.58,17.64 C56.015408,17.1804946 55.3079138,16.9328716 54.58,16.94 L45.48,16.94 C44.0455437,16.8703619 42.7734091,17.854146 42.48,19.26 C41.9777782,21.5233015 41.6071568,23.8138089 41.37,26.12 C40.65,26.38 39.95,26.68 39.26,27 L34.37,23.21 C33.8043671,22.7474508 33.1004813,22.487013 32.37,22.47 C31.37,22.47 30.25,23.04 27.37,25.85 C25.8454027,27.2845953 24.431378,28.832334 23.14,30.48 C22.7413171,31.0091903 22.5144572,31.647888 22.49,32.31 C22.497189,33.0476889 22.7706385,33.7579475 23.26,34.31 C24.76,36.13 26,37.73 27,39.1 C26.6445206,39.8296041 26.3274213,40.5772908 26.05,41.34 L19.32,42.34 C18.6050034,42.4771503 17.9727451,42.8902736 17.56,43.49 C17.1793989,44.038006 16.9832506,44.6930013 17,45.36 L17,54.46 C16.9991532,55.151084 17.227779,55.822892 17.65,56.37 C18.0915469,56.9666638 18.7477722,57.368288 19.48,57.49 Z M28.48,44.14 L28.77,43.19 C29.1444731,41.9829694 29.6403413,40.8170091 30.25,39.71 L30.71,38.85 L30.15,38.06 C29.03,36.47 27.53,34.53 25.71,32.29 C26.8979078,30.7961353 28.1912119,29.3892076 29.58,28.08 C31.8,25.88 32.49,25.6 32.47,25.68 L38.92,30.68 L39.81,30.21 C40.9256092,29.6263502 42.0900268,29.1411762 43.29,28.76 L44.29,28.45 L44.41,27.45 C44.84,23.83 45.22,21.33 45.52,20.06 L54.52,19.96 L55.81,28.46 L56.73,28.76 C57.918265,29.1432935 59.0750578,29.6180466 60.19,30.18 L61,30.64 L67.61,25.64 C69.9901796,27.6773671 72.1700994,29.9376527 74.12,32.39 C73.72,32.95 73.04,33.84 72.12,35.06 C71.2,36.28 70.35,37.28 69.85,38 L69.28,38.78 L69.72,39.63 C70.3544852,40.8387113 70.883126,42.1000883 71.3,43.4 L71.59,44.33 L79.92,45.55 L80.1,54.55 L71.58,55.84 L71.27,56.73 C70.8609904,57.9368267 70.359503,59.1103072 69.77,60.24 L69.31,61.09 L69.86,61.88 C70.86,63.28 72.3,65.16 74.3,67.69 C73.1058791,69.1909726 71.8058933,70.6045818 70.41,71.92 C69.5754696,72.8602455 68.6126819,73.6782784 67.55,74.35 L61.12,69.3 L60.22,69.77 C59.104578,70.3567568 57.9401799,70.8452687 56.74,71.23 L55.74,71.54 L55.62,72.54 C55.2,76.17 54.81,78.66 54.62,79.93 L54.55,79.93 L45.55,80.03 L44.25,71.53 L43.33,71.23 C42.1410897,70.8484721 40.984161,70.3736633 39.87,69.81 L39,69.36 L32.38,74.36 C29.9887311,72.3560959 27.8105381,70.1108817 25.88,67.66 C26.28,67.1 26.96,66.21 27.88,64.99 C28.8,63.77 29.63,62.74 30.13,62.04 L30.7,61.25 L30.24,60.39 C29.5905376,59.1991116 29.0708895,57.9418985 28.69,56.64 L28.41,55.64 L20.06,54.45 L19.84,45.45 L28.48,44.14 Z" id="Shape"></path>
            <path d="M50,62.06 C56.6605541,62.06 62.06,56.6605541 62.06,50 C62.06,43.3394459 56.6605541,37.94 50,37.94 C43.3394459,37.94 37.94,43.3394459 37.94,50 C37.94,56.6605541 43.3394459,62.06 50,62.06 L50,62.06 Z M43.69,43.69 C45.3647435,42.014972 47.6363538,41.0739271 50.005,41.0739271 C52.3736462,41.0739271 54.6452565,42.014972 56.32,43.69 C57.995028,45.3647435 58.9360729,47.6363538 58.9360729,50.005 C58.9360729,52.3736462 57.995028,54.6452565 56.32,56.32 C54.6452565,57.995028 52.3736462,58.9360729 50.005,58.9360729 C47.6363538,58.9360729 45.3647435,57.995028 43.69,56.32 C42.014972,54.6452565 41.0739271,52.3736462 41.0739271,50.005 C41.0739271,47.6363538 42.014972,45.3647435 43.69,43.69 Z" id="Shape"></path>
        </g>
    </g>
</svg>