<?xml version="1.0" encoding="UTF-8"?>
<svg width="27px" height="30px" viewBox="0 0 27 30" version="1.1" xmlns="http://www.w3.org/2000/svg" xmlns:xlink="http://www.w3.org/1999/xlink">
    <!-- Generator: Sketch 41 (35326) - http://www.bohemiancoding.com/sketch -->
    <title>footprints</title>
    <desc>Created with Sketch.</desc>
    <defs></defs>
    <g id="Page-1" stroke="none" stroke-width="1" fill="none" fill-rule="evenodd">
        <g id="footprints" transform="translate(0.000000, -1.000000)" fill="#000000">
            <g id="Group" transform="translate(0.000000, 0.637900)">
                <path d="M15.84375,0.3640531 C15.172972,0.32925313 14.608744,0.6872562 14.25,1.2097562 C13.89125,1.7321563 13.706688,2.4300969 13.742188,3.2038969 C13.777689,3.9777969 14.027034,4.6981375 14.435547,5.2605375 C14.844054,5.8228375 15.444456,6.2411625 16.115234,6.2761625 C16.78601,6.3110625 17.350235,5.9528594 17.708984,5.4304594 C17.751654,5.3683125 17.784601,5.2962249 17.822266,5.2292875 C18.044949,5.5396402 18.340155,5.7908685 18.705078,5.8992094 C19.211636,6.0495997 19.703342,5.8884078 20.076172,5.58085 C20.219803,5.9577082 20.469781,6.2932686 20.832031,6.4753812 C21.263113,6.6923799 21.725194,6.6276526 22.105469,6.4167875 C22.20798,6.8377051 22.454532,7.2455035 22.853516,7.4460844 C23.080882,7.5603884 23.319007,7.582621 23.544922,7.5496 C23.546443,7.5881112 23.535233,7.6264981 23.539062,7.6648344 C23.578398,8.0586344 23.76078,8.4720437 24.111328,8.7019438 C24.46188,8.9319438 24.872797,8.9085781 25.199219,8.7546781 C25.525654,8.6008781 25.80013,8.3220438 25.994141,7.9519438 C26.18815,7.5818437 26.271762,7.1758219 26.232422,6.7820219 C26.193087,6.3882219 26.010717,5.9768656 25.660156,5.7468656 C25.456942,5.6135333 25.234888,5.5717928 25.019531,5.5847562 C25.029606,5.3841316 25.018412,5.1852428 24.976562,4.9929594 C24.881446,4.5560594 24.628187,4.1265406 24.214844,3.9187406 C23.893097,3.7569889 23.551724,3.7700587 23.251953,3.8835844 C23.242922,3.8145106 23.237356,3.744095 23.222656,3.6765531 C23.115088,3.1823531 22.832496,2.7092875 22.375,2.4792875 L22.375,2.4773344 C21.917494,2.2471344 21.41733,2.3299375 21.025391,2.5730375 C20.96568,2.6100725 20.911637,2.6577012 20.855469,2.7019438 C20.82511,2.589675 20.793705,2.4777307 20.75,2.3718656 C20.536858,1.8556656 20.139006,1.4052656 19.605469,1.2468656 C19.071941,1.0884656 18.550593,1.2657406 18.171875,1.6062406 C18.055456,1.7109111 17.951933,1.8358101 17.857422,1.9695219 C17.761011,1.760523 17.654234,1.5596841 17.523438,1.3796781 C17.114925,0.8172781 16.514527,0.3990531 15.84375,0.3640531 Z M10.398438,0.3660062 C9.727661,0.4010062 9.127263,0.8192313 8.71875,1.3816312 C8.587952,1.5616692 8.481177,1.7624687 8.384766,1.971475 C8.2902,1.8376407 8.188776,1.712944 8.072266,1.6081938 C7.693545,1.2676937 7.170256,1.0865125 6.6367188,1.2449125 C6.1031819,1.4033125 5.7072805,1.8576187 5.4941406,2.3738188 C5.4506572,2.47915 5.4169908,2.5902696 5.3867188,2.7019438 C5.3304098,2.6575223 5.2766358,2.6081998 5.2167969,2.5710844 C4.8248492,2.3279844 4.3266463,2.2489875 3.8691406,2.4792875 C3.4116312,2.7092875 3.127108,3.1823531 3.0195312,3.6765531 C3.0048313,3.7440813 2.9992424,3.8144625 2.9902344,3.8835844 C2.6906514,3.7705497 2.3490901,3.7587864 2.0273438,3.9206938 C1.6140099,4.1284937 1.3587783,4.5540063 1.2636719,4.9910062 C1.2218245,5.1832457 1.2120518,5.3839285 1.2226562,5.5847562 C1.0075132,5.5722935 0.7852885,5.6133895 0.5820312,5.7468656 C0.2314747,5.9768656 0.0491007,6.3882219 0.0097656,6.7820219 C-0.0295734,7.1758219 0.0540366,7.5819437 0.2480469,7.9519438 C0.4420571,8.3220438 0.7184912,8.6008781 1.0449219,8.7546781 C1.3713489,8.9085781 1.7803029,8.9302906 2.1308594,8.6999906 C2.481403,8.4700906 2.6637899,8.0604875 2.703125,7.6667875 C2.707007,7.627931 2.6957548,7.5886372 2.6972656,7.5496 C2.9231024,7.5821807 3.1592289,7.5585548 3.3867188,7.4441312 C3.7857591,7.2435233 4.0341882,6.8377332 4.1367188,6.4167875 C4.5169379,6.6269587 4.9816877,6.6919535 5.4121094,6.4753812 C5.7749201,6.2929869 6.0231401,5.9567024 6.1660156,5.5788969 C6.5390625,5.8875638 7.029704,6.0498514 7.537109,5.8992094 C7.901672,5.7909756 8.197302,5.5392075 8.419922,5.2292875 C8.457702,5.2964774 8.490383,5.368093 8.533203,5.4304594 C8.891948,5.9529594 9.456176,6.3110625 10.126953,6.2761625 C10.79773,6.2411625 11.398128,5.8229375 11.806641,5.2605375 C12.215153,4.6982375 12.464503,3.97965 12.5,3.20585 C12.5355,2.43205 12.350931,1.7342094 11.992188,1.2117094 C11.633442,0.6892094 11.069214,0.33110625 10.398438,0.3660062 Z M10.351562,1.3660062 C10.639997,1.3510063 10.919354,1.49725 11.148438,1.83085 C11.377517,2.16455 11.526717,2.6742312 11.5,3.2566312 C11.47328,3.8390313 11.276485,4.3682344 11.015625,4.7273344 C10.754765,5.0863344 10.462262,5.2611625 10.173828,5.2761625 C9.885393,5.2911625 9.606038,5.1449187 9.376953,4.8113188 C9.147869,4.4777188 8.998674,3.9679375 9.025391,3.3855375 C9.052111,2.8031375 9.248902,2.2759875 9.509766,1.9167875 C9.770627,1.5577875 10.063127,1.3810062 10.351562,1.3660062 Z M15.890625,1.3660062 C16.179059,1.3810062 16.471563,1.5558344 16.732422,1.9148344 C16.993282,2.2739344 17.190077,2.8011844 17.216797,3.3835844 C17.243513,3.9659844 17.094318,4.4777188 16.865234,4.8113188 C16.636155,5.1450187 16.358746,5.2911625 16.070312,5.2761625 C15.781878,5.2611625 15.487427,5.0844812 15.226562,4.7253812 C14.965702,4.3662813 14.770861,3.8390313 14.744141,3.2566312 C14.717424,2.6742313 14.864667,2.16445 15.09375,1.83085 C15.322834,1.49725 15.60219,1.3510063 15.890625,1.3660062 Z M6.828125,2.2292875 C6.9946396,2.1802875 7.188108,2.219175 7.396484,2.408975 C7.604871,2.596275 7.795257,2.9259625 7.875,3.3386625 C7.95474,3.7512625 7.906342,4.1522188 7.789062,4.4363188 C7.671791,4.7204188 7.51417,4.8653344 7.347656,4.9148344 C7.181141,4.9638344 6.9876826,4.9254469 6.7792969,4.7351469 C6.5709093,4.5477469 6.3805223,4.2200125 6.3007812,3.8074125 C6.2210382,3.3948125 6.2694398,2.9919031 6.3867188,2.7078031 C6.504,2.4237031 6.6616104,2.2787875 6.828125,2.2292875 Z M19.146484,2.2292875 C19.241938,2.20195 19.330805,2.2047875 19.414062,2.2292875 C19.580578,2.2786875 19.738199,2.4257563 19.855469,2.7097562 C19.972749,2.9938562 20.021146,3.3928594 19.941406,3.8054594 C19.861664,4.2181594 19.671276,4.5477469 19.462891,4.7351469 C19.254513,4.9235469 19.062999,4.9638344 18.896484,4.9148344 C18.729969,4.8653344 18.570404,4.7204188 18.453125,4.4363188 C18.335845,4.1523187 18.287447,3.7512625 18.367188,3.3386625 C18.446928,2.9259625 18.637315,2.596375 18.845703,2.408975 C18.949897,2.314125 19.051031,2.256625 19.146484,2.2292875 Z M4.4316406,3.3796781 C4.5084115,3.3884281 4.5947199,3.4182875 4.6933594,3.4792875 C4.8906329,3.6015875 5.0999106,3.8489125 5.2285156,4.1824125 C5.3571205,4.5158125 5.3744546,4.8575406 5.3203125,5.1062406 C5.2661625,5.3550406 5.1662232,5.4836875 5.0507812,5.5417875 C4.9353394,5.5997875 4.783211,5.5973813 4.5859375,5.4753812 C4.388664,5.3529813 4.1793863,5.1076094 4.0507812,4.7742094 C3.9221762,4.4407094 3.9048426,4.0991812 3.9589844,3.8503812 C4.0131294,3.6016812 4.1150268,3.4709812 4.2304688,3.4128812 C4.2881896,3.3838813 4.3548697,3.3709281 4.4316406,3.3796781 Z M21.810547,3.3796781 C21.887579,3.3716781 21.955951,3.3858344 22.013672,3.4148344 C22.129114,3.4728344 22.229063,3.5996281 22.283203,3.8484281 C22.337352,4.0971281 22.320011,4.4388563 22.191406,4.7722562 C22.062798,5.1057562 21.853532,5.3511281 21.65625,5.4734281 C21.458976,5.5954281 21.308801,5.5997875 21.193359,5.5417875 C21.077908,5.4836875 20.976015,5.3530875 20.921875,5.1042875 C20.867722,4.8554875 20.885063,4.5139594 21.013672,4.1804594 C21.142277,3.8470594 21.351545,3.6016875 21.548828,3.4792875 C21.647465,3.4182875 21.733515,3.3876781 21.810547,3.3796781 Z M2.5214844,4.8328031 C2.5748571,4.8390531 2.6369618,4.861975 2.7128906,4.908975 C2.8647481,5.002975 3.0332562,5.1973156 3.1367188,5.4656156 C3.2401849,5.7338156 3.2526177,6.0084906 3.2109375,6.1999906 C3.1692575,6.3914906 3.0986227,6.4727844 3.0273438,6.5085844 C2.9560648,6.5445844 2.8530295,6.54985 2.7011719,6.45585 C2.5493144,6.36185 2.3827595,6.1655562 2.2792969,5.8972562 C2.1758343,5.6289563 2.1633975,5.3563344 2.2050781,5.1648344 C2.2467581,4.9733344 2.317393,4.8900875 2.3886719,4.8542875 C2.4243114,4.8362875 2.4681116,4.8265531 2.5214844,4.8328031 Z M23.720703,4.8328031 C23.774075,4.8265531 23.817876,4.8362875 23.853516,4.8542875 C23.924795,4.8901875 23.997383,4.9733344 24.039062,5.1648344 C24.080744,5.3563344 24.068306,5.6289563 23.964844,5.8972562 C23.861381,6.1654562 23.690919,6.36185 23.539062,6.45585 C23.387205,6.54985 23.286124,6.5465375 23.214844,6.5105375 C23.143565,6.4746375 23.07293,6.3914906 23.03125,6.1999906 C22.989566,6.0084906 23.002006,5.7339156 23.105469,5.4656156 C23.208931,5.1974156 23.377439,5.002975 23.529297,4.908975 C23.605225,4.861975 23.667331,4.8390531 23.720703,4.8328031 Z M8.740234,6.3328031 C8.340688,6.3373031 7.928956,6.3696 7.513672,6.4246 C5.8525354,6.6447 4.1136978,7.265 2.8320312,8.2371 C1.5503649,9.2093 0.706688,10.638872 1.1328125,12.250772 C1.7933071,14.749172 2.9281224,16.551216 3.8222656,18.465616 C4.7164089,20.380116 5.3966772,22.406212 5.2480469,25.494912 C5.0829848,28.925013 7.73129,30.728053 9.896484,30.301553 C10.979082,30.088253 11.940484,29.2781 12.240234,27.9871 C12.537958,26.704833 12.228546,25.007111 11.046875,22.871866 L11.041016,22.858194 C10.223758,21.001668 9.423807,19.524913 9.306641,17.873819 C9.189175,16.218619 9.715965,14.306659 11.734375,11.492959 L11.744141,11.479288 L11.751953,11.463662 C12.336589,10.528463 12.621721,9.711034 12.621094,8.9773344 C12.620467,8.2437344 12.297669,7.611525 11.791016,7.190225 C11.284362,6.768925 10.629311,6.522975 9.894531,6.408975 C9.527142,6.351975 9.139781,6.3283031 8.740234,6.3328031 Z M17.501953,6.3328031 C17.102407,6.3283531 16.715046,6.352175 16.347656,6.408975 C15.612877,6.522975 14.957826,6.7708781 14.451172,7.1921781 C13.944518,7.6134781 13.621721,8.2456875 13.621094,8.9792875 C13.620467,9.712987 13.905599,10.530416 14.490234,11.465616 L14.498047,11.479288 L14.507812,11.492959 C16.526224,14.306659 17.053012,16.218619 16.935547,17.873819 C16.818081,19.529119 16.014738,21.008666 15.195312,22.871866 C14.013644,25.007111 13.704231,26.704833 14.001953,27.9871 C14.301703,29.2781 15.263106,30.088253 16.345703,30.301553 C18.510897,30.728053 21.159203,28.925013 20.994141,25.494912 C20.84551,22.406212 21.525779,20.380116 22.419922,18.465616 C23.314065,16.551216 24.44888,14.749172 25.109375,12.250772 C25.5355,10.638872 24.691823,9.2093 23.410156,8.2371 C22.12849,7.265 20.389652,6.6447 18.728516,6.4246 C18.313231,6.3696 17.901499,6.3372531 17.501953,6.3328031 Z M1.1171875,6.6160062 C1.1500069,6.6166312 1.1943003,6.6265687 1.2539062,6.6550688 C1.3731225,6.7110688 1.523886,6.8472469 1.6289062,7.0476469 C1.7339348,7.2479469 1.7663173,7.4604875 1.7519531,7.6042875 C1.7375841,7.7480875 1.6964426,7.7933719 1.6660156,7.8132719 C1.6355806,7.8332719 1.5801488,7.8497406 1.4609375,7.7937406 C1.3417213,7.7377406 1.190966,7.6035156 1.0859375,7.4031156 C0.9809043,7.2028156 0.9485264,6.990275 0.9628906,6.846475 C0.9772596,6.702675 1.0183931,6.6555375 1.0488281,6.6355375 C1.0640416,6.6255375 1.0843681,6.6153813 1.1171875,6.6160062 Z M25.125,6.6160062 C25.157593,6.6157563 25.178144,6.6255375 25.193359,6.6355375 C25.223799,6.6555375 25.264937,6.7006219 25.279297,6.8445219 C25.293666,6.9883219 25.261283,7.2008625 25.15625,7.4011625 C25.051221,7.6015625 24.902419,7.7377406 24.783203,7.7937406 C24.663983,7.8497406 24.608565,7.8332719 24.578125,7.8132719 C24.547695,7.7933719 24.506547,7.7461344 24.492188,7.6023344 C24.477823,7.4585344 24.510205,7.2460937 24.615234,7.0456938 C24.720275,6.8453938 24.869069,6.7110688 24.988281,6.6550688 C25.047887,6.6270687 25.092407,6.6162562 25.125,6.6160062 Z M8.738281,7.3445219 C9.789786,7.3483797 10.683147,7.5732844 11.150391,7.9617094 C11.461886,8.2207094 11.620695,8.5149406 11.621094,8.9812406 C11.621492,9.447441 11.425709,10.102219 10.904297,10.936319 C8.822957,13.845816 8.174244,16.023428 8.310547,17.944131 C8.447281,19.870831 9.332125,21.458109 10.130859,23.274209 L10.140625,23.295694 L10.152344,23.317178 C11.279619,25.339378 11.486541,26.817437 11.267578,27.760538 C11.048615,28.703537 10.45119,29.171731 9.703125,29.319131 C8.206994,29.613831 6.1056658,28.461941 6.2460938,25.543741 C6.4029433,22.284141 5.6566424,20.030941 4.7285156,18.043741 C3.8003889,16.056441 2.7177348,14.335066 2.0996094,11.996866 C1.7896889,10.824566 2.3448427,9.862775 3.4375,9.033975 C4.5301573,8.205175 6.140563,7.6160875 7.644531,7.4167875 C8.020523,7.3669875 8.38778,7.3432359 8.738281,7.3445219 Z M17.503906,7.3445219 C17.854408,7.3432437 18.221664,7.3650344 18.597656,7.4148344 L18.597656,7.4167875 C20.101625,7.6160875 21.712029,8.205175 22.804688,9.033975 C23.897344,9.862775 24.452499,10.824566 24.142578,11.996866 C23.524453,14.335066 22.441799,16.056441 21.513672,18.043741 C20.585545,20.030941 19.839244,22.284141 19.996094,25.543741 C20.136522,28.461941 18.035193,29.613831 16.539062,29.319131 C15.790997,29.171731 15.193572,28.703537 14.974609,27.760538 C14.755646,26.817438 14.962569,25.339378 16.089844,23.317178 L16.101562,23.295694 L16.111328,23.274209 C16.910063,21.458109 17.796859,19.870831 17.933594,17.944131 C18.069917,16.023124 17.420024,13.844554 15.337891,10.934366 C14.816479,10.100266 14.620695,9.445487 14.621094,8.9792875 C14.621492,8.5129875 14.780301,8.2187563 15.091797,7.9597562 C15.55904,7.5712562 16.452401,7.3483563 17.503906,7.3445219 Z" id="Shape"></path>
            </g>
        </g>
    </g>
</svg>