<?xml version="1.0" encoding="UTF-8"?>
<svg width="71px" height="71px" viewBox="0 0 71 71" version="1.1" xmlns="http://www.w3.org/2000/svg" xmlns:xlink="http://www.w3.org/1999/xlink">
    <!-- Generator: Sketch 41 (35326) - http://www.bohemiancoding.com/sketch -->
    <title>delete</title>
    <desc>Created with Sketch.</desc>
    <defs></defs>
    <g id="Page-1" stroke="none" stroke-width="1" fill="none" fill-rule="evenodd">
        <g id="delete" fill="#000000">
            <g id="Group">
                <path d="M35.25,0.5 C15.813,0.5 0,16.313 0,35.75 C0,55.187 15.813,71 35.25,71 C54.687,71 70.5,55.187 70.5,35.75 C70.5,16.313 54.687,0.5 35.25,0.5 Z M35.25,68 C17.467,68 3,53.532 3,35.75 C3,17.967 17.467,3.5 35.25,3.5 C53.032,3.5 67.5,17.967 67.5,35.75 C67.5,53.532 53.032,68 35.25,68 Z" id="Shape"></path>
                <path d="M54.031,18.37 C53.462,17.768 52.512,17.742 51.911,18.312 L35.417,33.934 L18.923,18.312 C18.32,17.741 17.372,17.767 16.803,18.37 C16.233,18.971 16.259,19.921 16.861,20.49 L33.236,36 L16.86,51.51 C16.258,52.079 16.233,53.029 16.802,53.63 C17.097,53.942 17.493,54.099 17.891,54.099 C18.261,54.099 18.632,53.962 18.922,53.688 L35.416,38.066 L51.91,53.688 C52.2,53.963 52.571,54.099 52.941,54.099 C53.338,54.099 53.735,53.942 54.03,53.63 C54.6,53.028 54.574,52.079 53.972,51.51 L37.598,36 L53.974,20.49 C54.575,19.92 54.602,18.971 54.031,18.37 Z" id="Shape"></path>
            </g>
        </g>
    </g>
</svg>