<?xml version="1.0" encoding="UTF-8"?>
<svg width="91px" height="84px" viewBox="0 0 91 84" version="1.1" xmlns="http://www.w3.org/2000/svg" xmlns:xlink="http://www.w3.org/1999/xlink">
    <!-- Generator: Sketch 41 (35326) - http://www.bohemiancoding.com/sketch -->
    <title>heart</title>
    <desc>Created with Sketch.</desc>
    <defs></defs>
    <g id="Page-1" stroke="none" stroke-width="1" fill="none" fill-rule="evenodd">
        <g id="heart" fill="#000000">
            <path d="M26.43,4.84 C32.3615513,4.82807643 38.0511989,7.19036048 42.23,11.4 L45,14.2 L47.82,11.41 C56.5433377,2.6756169 70.6956165,2.6666627 79.4299998,11.3900002 C88.164383,20.1133378 88.1733374,34.2656166 79.45,43 L78.75,43.71 L45,77.49 L10.63,43 C4.23807417,36.6106923 2.32549215,26.9995728 5.78442315,18.649976 C9.24335415,10.3003793 17.3923033,4.8573823 26.43,4.86 L26.43,4.84 Z M26.43,0.86 C15.7620929,0.847972578 6.14033513,7.27177014 2.06156811,17.1291555 C-2.01719891,26.9865409 0.252541689,38.3307762 7.81,45.86 L45,83.16 L45.1,83.06 L45.1,83.06 L82.3,45.81 L82.3,45.81 C92.5863035,35.526458 92.588542,18.8513035 82.305,8.565 C72.021458,-1.72130347 55.3463035,-1.72354204 45.06,8.56 L45.06,8.56 C40.1249677,3.60973001 33.4199672,0.831275705 26.43,0.84 L26.43,0.86 Z" id="Shape"></path>
        </g>
    </g>
</svg>